PathFileType	4	(x/y/z)	S01_PSF_T17.trc
DataRate	CameraRate	NumFrames	NumMarkers	Units	OrigDataRate	OrigDataStartFrame	OrigNumFrames
240	240	5	51	mm	240	46	363
Frame#	Time	Sternum			R.Acromium			L.Acromium			Top.Head			R.ASIS			L.ASIS			R.PSIS			L.PSIS			R.Great.Tro			L.Great.Tro			R.Iliac.Crest			L.Iliac.Crest			V.Sacral			R.Thigh.Upper.Post			R.Thigh.Lower.Ant			R.Thigh.Lower.Post			R.Thigh.Upper.Ant			R.Knee.Lat			R.Knee.Med			R.Shank.Upper.Post			R.Shank.Lower.Ant			R.Shank.Lower.Post			R.Shank.Upper.Ant			R.Ankle.Lat			R.Ankle.Med			R.Heel.Upper			R.Heel.Med			R.Heel.Lat			R.Toe.Lat			R.Toe.Med			R.Toe.Tip			L.Thigh.Upper.Post			L.Thigh.Lower.Ant			L.Thigh.Lower.Post			L.Thigh.Upper.Ant			L.Knee.Lat			L.Knee.Med			L.Shank.Upper.Post			L.Shank.Lower.Ant			L.Shank.Lower.Post			L.Shank.Upper.Ant			L.Ankle.Lat			L.Ankle.Med			L.Heel.Upper			L.Heel.Med			L.Heel.Lat			L.Toe.Lat			L.Toe.Med			L.Toe.Tip			Cervical.Spine			Back			
		X1	Y1	Z1	X2	Y2	Z2	X3	Y3	Z3	X4	Y4	Z4	X5	Y5	Z5	X6	Y6	Z6	X7	Y7	Z7	X8	Y8	Z8	X9	Y9	Z9	X10	Y10	Z10	X11	Y11	Z11	X12	Y12	Z12	X13	Y13	Z13	X14	Y14	Z14	X15	Y15	Z15	X16	Y16	Z16	X17	Y17	Z17	X18	Y18	Z18	X19	Y19	Z19	X20	Y20	Z20	X21	Y21	Z21	X22	Y22	Z22	X23	Y23	Z23	X24	Y24	Z24	X25	Y25	Z25	X26	Y26	Z26	X27	Y27	Z27	X28	Y28	Z28	X29	Y29	Z29	X30	Y30	Z30	X31	Y31	Z31	X32	Y32	Z32	X33	Y33	Z33	X34	Y34	Z34	X35	Y35	Z35	X36	Y36	Z36	X37	Y37	Z37	X38	Y38	Z38	X39	Y39	Z39	X40	Y40	Z40	X41	Y41	Z41	X42	Y42	Z42	X43	Y43	Z43	X44	Y44	Z44	X45	Y45	Z45	X46	Y46	Z46	X47	Y47	Z47	X48	Y48	Z48	X49	Y49	Z49	X50	Y50	Z50	X51	Y51	Z51	

46	0.1875	-985.72	1290.2	254.98	-1110.2	1545.1	420.02	-1114.1	1549.5	89.32	-1097.7	1862.3	242.77	-1043.4	1042.7	415.14	-1026.3	1034.7	150.18	-1276.3	1069.6	318.08	-1281	1073.6	214.81	-1121.5	991.59	501.42	-1135.4	984.46	73.755	-1134.9	1141.4	473.57	-1137.2	1111.2	70.996	-1291	1035.9	263.03	-1000	700.35	492.58	-904.66	664.96	472.95	-959.27	622.12	473.51	-943.79	746.14	489.62	-921.02	571.9	473.11	-896.08	578	327.22	-974.45	414.42	480.25	-906.8	334.04	446.22	-975.85	344.77	466.33	-910.08	405.02	465.69	-964.36	141.39	428.42	-918.93	153.97	342.73	-1023.7	112.06	358.38	-1001.1	86.023	330.25	-1016.7	79.886	392.88	-839.14	66.023	476.01	-789.97	82.192	362.33	-736.73	100.77	425.97	-1200.6	710.32	101.62	-1122.6	631.21	101.93	-1199.9	620.8	119.08	-1133	724.23	81.13	-1160.7	529.14	112.95	-1138	532.78	254.9	-1233	393.94	98.493	-1182.4	298.67	126.88	-1242.4	315.95	104.6	-1172.3	374.32	115.91	-1282.1	105.38	147.96	-1257.8	116.55	246.49	-1354.6	74.223	193.37	-1344.7	49.662	226.75	-1345.8	49.292	164.55	-1132.8	40.141	134.82	-1111.5	48.828	256.96	-1046.9	59.131	207.64	-1197.1	1602.2	254.72	-1292.6	1295.1	276.12
47	0.19167	-980.18	1289.1	255.25	-1104.6	1544.1	420.38	-1108.6	1548.6	89.669	-1092.1	1861.4	243.27	-1037.9	1041.5	415.51	-1020.9	1033.7	150.39	-1270.8	1068.9	318.27	-1275.6	1073.1	215.02	-1116.1	990.27	501.52	-1130.2	983.96	73.833	-1129.4	1140.3	473.85	-1131.7	1110.4	71.201	-1285.7	1035.3	263.16	-995.09	698.86	491.77	-899.74	663.57	471.96	-954.33	620.7	472.38	-938.87	744.68	488.92	-915.45	571.02	471.89	-891.06	577.02	325.84	-965.2	412.47	479.74	-895.65	333.64	445.96	-964.89	342.79	466.21	-900.67	404.6	465.14	-948.12	139.36	429.04	-903.18	152.77	343.23	-1006.8	108.06	359.19	-983.44	82.475	331.19	-998.82	76.278	393.87	-820.77	67.71	476.8	-772.28	84.673	362.99	-719.54	104.94	426.44	-1197.2	710.33	101.58	-1119.8	630.78	101.89	-1197.2	620.85	118.99	-1129.6	723.81	81.1	-1158.8	528.9	112.77	-1135.9	532.31	254.78	-1231.8	393.95	98.434	-1181.6	298.46	126.71	-1241.6	316	104.56	-1171.2	374.08	115.72	-1281.9	105.47	148.05	-1257.6	116.56	246.53	-1354.5	74.328	193.47	-1344.6	49.727	226.82	-1345.7	49.444	164.62	-1132.7	40.023	134.78	-1111.5	48.676	256.93	-1046.8	58.859	207.61	-1191.5	1601.4	255.15	-1287.1	1294.2	276.57
48	0.19583	-974.63	1288	255.53	-1099	1543	420.74	-1103	1547.6	90.039	-1086.5	1860.4	243.79	-1032.3	1040.3	415.9	-1015.5	1032.7	150.61	-1265.3	1068.1	318.46	-1270.2	1072.6	215.23	-1110.7	988.91	501.61	-1125	983.44	73.91	-1124	1139.1	474.15	-1126.1	1109.5	71.422	-1280.4	1034.7	263.29	-990.24	697.29	490.96	-894.9	662.1	470.98	-949.48	619.21	471.26	-934.01	743.14	488.22	-909.94	570.09	470.69	-886.12	575.95	324.44	-956.01	410.57	479.22	-884.62	333.31	445.69	-954.01	340.89	466.09	-891.34	404.21	464.6	-932.01	137.54	429.63	-887.55	151.75	343.71	-989.96	104.3	359.98	-965.93	79.185	332.1	-981.04	72.939	394.83	-802.66	69.614	477.55	-754.85	87.339	363.6	-702.64	109.28	426.86	-1193.8	710.33	101.56	-1117	630.33	101.86	-1194.5	620.91	118.92	-1126.1	723.38	81.076	-1156.9	528.66	112.61	-1133.8	531.84	254.66	-1230.6	393.96	98.388	-1180.8	298.26	126.54	-1240.7	316.06	104.52	-1170	373.85	115.54	-1281.8	105.57	148.16	-1257.4	116.59	246.58	-1354.4	74.446	193.58	-1344.6	49.804	226.9	-1345.7	49.612	164.7	-1132.7	39.909	134.76	-1111.4	48.522	256.9	-1046.8	58.579	207.58	-1185.9	1600.5	255.61	-1281.7	1293.3	277.04
49	0.2	-969.08	1286.9	255.84	-1093.3	1542	421.13	-1097.5	1546.6	90.431	-1080.8	1859.5	244.31	-1026.8	1039.2	416.3	-1010.1	1031.7	150.85	-1259.9	1067.3	318.64	-1264.8	1072	215.42	-1105.2	987.52	501.7	-1119.7	982.89	73.986	-1118.5	1137.8	474.46	-1120.5	1108.7	71.659	-1275.1	1034	263.4	-985.44	695.67	490.17	-890.12	660.54	470.02	-944.69	617.65	470.16	-929.18	741.53	487.53	-904.49	569.11	469.5	-881.27	574.81	323.02	-946.87	408.71	478.71	-873.7	333.04	445.41	-943.21	339.07	465.96	-882.1	403.85	464.06	-916.04	135.92	430.19	-872.07	150.92	344.15	-973.23	100.79	360.74	-948.56	76.155	332.98	-963.41	69.867	395.76	-784.83	71.715	478.25	-737.7	90.175	364.16	-686.06	113.76	427.23	-1190.4	710.34	101.55	-1114.2	629.88	101.86	-1191.8	620.95	118.86	-1122.6	722.96	81.062	-1154.9	528.42	112.46	-1131.6	531.37	254.55	-1229.4	393.98	98.355	-1179.9	298.06	126.39	-1239.8	316.13	104.49	-1168.8	373.62	115.38	-1281.6	105.68	148.27	-1257.2	116.62	246.63	-1354.3	74.579	193.69	-1344.5	49.893	226.98	-1345.6	49.795	164.78	-1132.6	39.799	134.73	-1111.4	48.366	256.87	-1046.7	58.292	207.55	-1180.3	1599.5	256.09	-1276.2	1292.4	277.52
50	0.20417	-963.51	1285.8	256.18	-1087.6	1540.9	421.54	-1091.9	1545.6	90.845	-1075.1	1858.5	244.85	-1021.3	1038	416.7	-1004.7	1030.8	151.1	-1254.4	1066.4	318.81	-1259.4	1071.4	215.61	-1099.8	986.11	501.78	-1114.4	982.33	74.06	-1113	1136.5	474.78	-1114.8	1107.9	71.91	-1269.7	1033.4	263.5	-980.69	693.99	489.4	-885.38	658.92	469.08	-939.96	616.03	469.08	-924.4	739.86	486.85	-899.07	568.1	468.35	-876.48	573.59	321.61	-937.8	406.9	478.21	-862.91	332.83	445.12	-932.5	337.33	465.82	-872.96	403.52	463.53	-900.26	134.49	430.71	-856.77	150.26	344.55	-956.65	97.521	361.47	-931.37	73.384	333.82	-945.95	67.057	396.64	-767.31	73.994	478.89	-720.86	93.162	364.66	-669.82	118.34	427.53	-1187	710.34	101.55	-1111.3	629.42	101.88	-1189	620.99	118.82	-1119.2	722.54	81.058	-1152.9	528.19	112.32	-1129.5	530.9	254.46	-1228.1	394.01	98.337	-1179.1	297.87	126.24	-1238.9	316.22	104.47	-1167.6	373.39	115.23	-1281.4	105.81	148.39	-1257	116.66	246.69	-1354.1	74.728	193.81	-1344.4	49.996	227.07	-1345.6	49.995	164.87	-1132.6	39.694	134.71	-1111.3	48.209	256.84	-1046.6	57.998	207.52	-1174.6	1598.6	256.59	-1270.6	1291.4	278.01
